<?xml version="1.0" standalone="no"?>
<!DOCTYPE svg PUBLIC "-//W3C//DTD SVG 20010904//EN"
 "http://www.w3.org/TR/2001/REC-SVG-20010904/DTD/svg10.dtd">
<svg version="1.0" xmlns="http://www.w3.org/2000/svg"
 width="270.000000pt" height="270.000000pt" viewBox="0 0 270.000000 270.000000"
 preserveAspectRatio="xMidYMid meet">
<metadata>
Created by potrace 1.14, written by Peter Selinger 2001-2017
</metadata>
<g transform="translate(0.000000,270.000000) scale(0.100000,-0.100000)"
fill="#000000" stroke="none">
<path d="M1295 2554 c-283 -35 -517 -150 -701 -346 -69 -73 -154 -202 -154
-233 0 -19 -21 -23 -114 -23 -43 0 -89 -5 -102 -11 -13 -6 -36 -17 -51 -23
-76 -34 -132 -107 -163 -213 -15 -51 -6 -162 14 -184 9 -10 16 -21 16 -24 0
-12 59 -89 78 -102 45 -32 122 -66 158 -69 21 -3 42 -5 46 -5 10 -1 31 -53 58
-141 34 -113 86 -207 176 -321 38 -48 54 -78 59 -110 9 -61 60 -204 85 -238
11 -16 20 -34 20 -39 0 -6 3 -12 8 -14 4 -1 27 -28 52 -58 24 -30 48 -57 53
-58 4 -2 31 -24 60 -48 54 -47 171 -110 235 -126 114 -29 163 -37 222 -37 66
0 173 18 186 32 4 4 18 7 32 7 74 0 288 142 362 240 14 18 30 38 35 44 39 41
107 209 121 297 5 32 24 64 70 123 75 94 133 202 164 306 26 86 48 140 58 141
63 6 93 14 136 35 69 34 86 49 135 121 36 53 43 72 47 125 7 78 -10 139 -60
225 -14 25 -95 93 -111 93 -5 0 -23 7 -40 16 -20 10 -61 17 -120 19 -109 3
-105 2 -105 19 0 40 -109 192 -200 280 -44 42 -82 76 -85 76 -2 0 -26 16 -52
36 -149 114 -464 208 -628 188z m-7 -293 l63 -23 77 29 c69 25 89 28 197 27
101 0 130 -4 180 -24 62 -24 150 -79 196 -123 60 -58 99 -153 99 -246 0 -50
-17 -129 -30 -141 -3 -3 -9 -12 -15 -21 -56 -89 -75 -109 -159 -161 -32 -20
-106 -47 -143 -53 -24 -4 -43 -10 -43 -15 0 -4 19 -20 42 -35 55 -36 159 -138
193 -189 35 -52 95 -180 95 -204 0 -10 4 -22 9 -27 16 -16 28 -220 17 -281 -6
-29 -14 -54 -18 -54 -4 0 -8 -8 -8 -17 0 -19 -16 -63 -43 -125 -10 -21 -17
-42 -17 -48 0 -5 -4 -10 -8 -10 -5 0 -14 -12 -21 -27 -13 -29 -23 -40 -98
-116 -129 -130 -316 -207 -503 -207 -105 0 -226 27 -308 69 -100 51 -177 111
-253 197 -49 55 -128 220 -129 267 0 9 -4 17 -8 17 -27 0 -28 240 -1 335 20
70 60 163 92 212 36 57 151 172 207 209 22 15 37 30 34 35 -4 7 -76 24 -94 22
-3 -1 -17 8 -32 18 -14 10 -29 19 -34 19 -15 0 -110 69 -124 91 -8 12 -25 34
-37 49 -13 15 -23 33 -23 39 0 6 -4 11 -8 11 -13 0 -32 86 -32 143 0 91 39
187 99 244 158 150 370 191 589 114z m-947 -546 c-2 -38 -7 -80 -12 -93 -5
-13 -9 -49 -9 -80 0 -81 -8 -89 -61 -62 -24 12 -56 36 -71 52 -59 66 -23 193
67 238 22 11 51 18 65 17 24 -2 25 -3 21 -72z m2106 54 c90 -48 124 -174 66
-237 -32 -34 -110 -78 -121 -67 -4 3 -10 39 -14 78 -8 80 -14 134 -23 190 -3
21 -3 42 0 48 10 15 51 10 92 -12z"/>
<path d="M940 1961 c-8 -5 -28 -13 -44 -17 -38 -11 -42 -27 -16 -52 48 -44
265 -35 284 13 7 19 -27 45 -71 56 -47 11 -133 11 -153 0z"/>
<path d="M1603 1960 c-63 -15 -84 -56 -40 -79 26 -14 135 -22 194 -14 74 10
106 66 44 79 -14 3 -34 9 -43 15 -21 11 -109 10 -155 -1z"/>
<path d="M935 800 c2 -28 7 -56 12 -63 4 -6 9 -20 10 -30 7 -43 96 -177 118
-177 3 0 15 -8 26 -19 42 -39 139 -77 214 -84 93 -9 226 30 283 84 12 10 24
19 27 19 26 0 143 190 118 190 -5 0 -3 4 4 8 18 12 24 122 7 122 -12 0 -19
-38 -17 -97 1 -7 -3 -13 -8 -13 -5 0 -9 -7 -9 -16 0 -31 -64 -136 -99 -162
-20 -15 -38 -29 -41 -32 -15 -17 -84 -52 -126 -65 -115 -35 -255 -6 -339 70
-13 11 -34 27 -47 37 -26 17 -88 125 -88 152 0 9 -4 16 -9 16 -5 0 -9 6 -8 13
2 60 -4 97 -17 97 -11 0 -14 -12 -11 -50z"/>
</g>
</svg>
